<?xml version="1.0" encoding="UTF-8"?>
<!-- Do not edit this file with editors other than draw.io -->
<!DOCTYPE svg PUBLIC "-//W3C//DTD SVG 1.1//EN" "http://www.w3.org/Graphics/SVG/1.1/DTD/svg11.dtd">
<svg xmlns="http://www.w3.org/2000/svg" xmlns:xlink="http://www.w3.org/1999/xlink" version="1.1" width="711px" height="302px" viewBox="-0.5 -0.5 711 302" content="&lt;mxfile host=&quot;drawio.corp.amazon.com&quot; modified=&quot;2026-10-02T16:16:12.462Z&quot; agent=&quot;Mozilla/5.0 (Windows NT 10.0; Win64; x64) AppleWebKit/537.36 (KHTML, like Gecko) Chrome/154.0.0.0 Safari/537.36&quot; etag=&quot;j95MJruQuNjNmWLCVJFl&quot; version=&quot;21.7.4&quot; type=&quot;device&quot; pages=&quot;7&quot;&gt;&lt;diagram name=&quot;EBS&quot; id=&quot;65QquFpUg0RFqIFyQS3-&quot;&gt;7Vtbc6M2FP41flwPFwPmMTjOdts0k453ZtOnjgyyUQOIgnzLr68EAgOSbbwbcMZxJhd0ELJ0vk+fzpHIQJ+E268JiP0/sQeDgaZ424F+P9Do13hE/zDLLreotq3llmWCPG7bG2boDXKjwq0r5MG0VpFgHBAU140ujiLokpoNJAne1KstcFD/1BgsoWCYuSAQrT+QR/zcOjaUvf03iJZ+8cmqwu+EoKjMDakPPLypmPTpQJ8kGJP8KtxOYMC8V/jFvHOd78vfn0H6ZKxffOsvVw+/5I09nPNIOYQERuR9m+ZYrkGw4v7iYyW7woEbHxE4i4HLyhvKkoHu+CQMaEmllwsUBBMc4ISWIxzRSk5KEvwKC+NA07WxZUDqL6flQPiA1zAhcFuBkQ/sK8QhJMmOVuF3RxyiXb242QNewupXwS6MgJNsWba8dyS94L48w6+6xK8mCJnvonkaZ65Q3tM0/WNGf0+CVUpgImDYBiRPMV3FpneY2xGdQHcBWkb0HsHsMxY4IjPeosLLVYh17YFe6M4JugDeaAAXpOxFMTE7oUiVBGMJCfTOSDA6PbnSV0hcn7s0xigiWScMh37Tbk3yH4NWnTDLUDMkRpnNEo2qWI3+UWWf0DTKbJZoVMVqrFT0um6U2SxD7HHzaVXytNp42mBMxCsSoIhSvFhYDtF22pAxap/eW0wcJNNkkX3ROx5IfejxZos58wjmMHjGKSIIM5rPMSE4PDipitngUrLTaVsXVjbh8uVU1SQTEKRxPqwF2rJ+OHR9itnNcLtka/kQbNLRMIEpXiUu/Oay/ji0mF/Va8HXtOOpp0tn3q9PvO//Lea7+cMjiB7/eXTsrY2fzC+GMM+gR4MCXsQJ8fESRyCY7q1OgleRV+K5r/OIGVIZIv9CQnYcErAiuI4X3CLywh4f2rbBy39nZVPnxfstbz4r7CqFZ5ggOnbGgdwWUT+8VAt5U0ZR3DeVlYq2zoMwp8axehwhApIlPNbgOK/H3HyUEQkMAEHremz27sJbdLu18lZgrE3rbDFL64tZQylYbDPVjipFU9eHipIpFSNGXVO54DWsttQqU33GPGnDVvY0vd9C2LVxo26mpicVTtAyueQ1Vep1NYdJRKmfDlGuUXHCJSrGXlcBo2XUAsaxGDB2JVjy/qs3wl4BYSOaPl8uxemXsWLm+FSOvsJaOjoizwAOuj1EnpcvyTBFb2BeRjx1WjKM2Sqc8hhJYDRPdCS5T1cYmcYpjIxeMZJloVeZ3fdLfTGvey5Wqs/KfKsOUbmxUsFo1CtGxlVSXzX73NmS5lam4MdbbvVzuZU1EHIrqce53HyU3Mq6hapXEKr2l1tpkrWg3/V6fGPsFTC2x+RKtsz2S1lboOwtu2pkVzKQek2vinPhTxBj9kp+TdwMu+VXdYzKdxIulV8VVD/G/SUN++NfdEj5XggHa1B99ULmKN2oe8qWkNmUJUx2Z64StwumDjusX+NgFX5yTdfH+fluVX90ETK7I25L860Wsi49Wu76QFhyvqsPOYnEA2zF0EYsN6Z1PQT3h95dA2rbNTRNdWiIy7RWGKuAFnnDuwPa4nDlIlpVUpj7yrJbEX/UlVKZp/1U38k5Ed0IoQy0LUM5EPeIzj+K5VkvH/TqRTHbvAvBG538mpLr/mT2jf6+T9Ba8qaWqP5tJbr9KiGDrQ7su4PBGS5KQa/K/lGDlqYQqHZ/SiB1VIuDo4srgXbA+xdRgmMbt59BCdqD8TGUQNzEvsXkR2LycmPlUni12MK9xeRtY3J1/AGCclsAsMdzxOK6cvB3+AjxJ48Ls1Lz7PE8iE+eIfJpcfIIkU/L/o8Q5WGjcsP+LOyPRRcnse/r1Vxa3P8vVHav8i9l+vR/&lt;/diagram&gt;&lt;diagram name=&quot;S3 Files&quot; id=&quot;djz31g8ctw4M_r4smT4g&quot;&gt;7Vxdd5paE/41uWwXnzFeqtiUc7IxVm1qbt5FkBIUxaMYgV//zszeG0VITM7qSUxWutpGBmbPnplnvgBzpnfm6eXKXd6zeOJHZ5oySc9060zTVEMz4AdSMkkxG5wSrMKJoO0IgzD3BVER1E048delC5M4jpJwWSZ68WLhe0mJ5q5W8bZ82e84KktduoFfIQw8N6pSb8JJcs+pF6ayo3/3w+BeSlYVcWbuyosFYX3vTuLtHknvnmnnZ5qeumd6+wxp5b96ZxXHydHL5MXztONHaH1pVy73279foNB95S+SP7RmsNkMrEbqf+kuH7JVErf/Z4VfBEge3GgjzC5MlmTSD9v7MPEHS9fD4y2ADeTeJ/MIjlT4+DuMok4cxSs4XsQLuKi9TlbxzJdE2Kt20TB9jfZ7qJbQ9MFfJX66R3qemjtlL/147ierDI7FMobwflY+3O6wVCDmfh9HkugK/AbFyi+yP1wrXPCvPXbxz9+jb/2bL5dD9efQ7tuzRbr+clHjsXN3jl5Z3K2XUsSfI3X/HsD/nWizTvxVBR3Pcf9EOfeUJpxBL4cQ4a0oDBZwLolRxu94kQzEioo43gePrn2DD3r7CBBdsWjk/06KXcjM8Wrg24fXRQ289BOHV/N4QljP/MS7F85axuEiIVXMNvwFWR3+z4RLO0j5qpk1xDpao0pUq5fBD7VOwiGxjtaoEtXqZXgkd10m1tEaZnXHh9xqDbd6wG0ixuNNEoULCB5ZUx8LiO5B6gV612pg8qoJwN/0B85M3PW9PxHLymi8cu/86Dpeh0kYYwDdxUkSzx8NVxlnHoQRJIRyMcBQ5p2EqtWEtrtecrV+hynuow2leYkn52mAbcxXd7s2vq78dbxZeb7t4X7acMg/la/yZ+s3CGq9NqZPOqQvLioh7E+g1RKH8Sq5j4N44UbdHbW9ijeLSQGV3TVXMYKAnD31kyQT3nY3SVyGgp+Gya+9z2NcCkKAH1mpWJkOMnmwAKv92j/Y48LDHRsdSb5HQcBx9IRtZIuYuKvAT57Kiya/EC33Z0C18iM3CR/K3W4dhF4iYyfpGhPzXjckQSraIf0QtNwCgusFuC2ht1DvrTEv/fpUHStD/Eh3UcmpfrNhKo80wK/Z5hZTjpzzpGP3klazJmnJfvhEk9a5WuPA8ygRRaXkyfN/NjittUufAvHzaRY88WVNOawFF6jKMuW7pxNbYS88tYhXczd6TMph0+x8G0jZYCEuvrylu9UhpXLhAV4BOUkFiQJxNSCsL8uacVCW1ZpCPw8nE6oClVr/msjW1QNkG2YF2XXlWDttZDe1CrJbczeHBgdmrW80aw1s+N9aQXGoDlwCBY+mpscBUXHmo26vy4XlbPm2Ga6Kg7oMdzptWe2tF9V4y7ZM+dpsymaMN1nn+tO9GRxc+6sQTIjg+e/7tXqjPbdd096sXTsFaL1wiN/DR2lCpDywLueBg6ETb+11tSeHzsNbBF8VhYZeRFx5PBez8wG1WUutu4GAkK5duEHccP4Z9wi0i4NraTA/Oiwfza58ej4ceGebO3+1gJhafw35uLtciWl3GU9eM802zFKWlTev3s3sWxsJ1Vr7GQnvLxIW8cR/zVA4/ujgHYaCWQkFpzDrk/3l8/vGlQ+jlHtX3O4r4x3Bgw3JWtwgfEHr+prOPzePOd98f84/P54HP+5zvncYrI2Kv65lN/AZqzvfN8q+L57d7jnfeH/Or3vE+zGDVT2vOuzUn8rXT1xmxUWfw/yxYV48a/4c5p+E1kufyH+OMKc4wrztMK/VFMZ32BXJBwKfsfCuY+GNx/m6puM9BkP1Lu/nQP+Mgb7O/e9wolefcWvzA08J7zFg9YrHPof640N98fj33Qz1tUNMo+r9iusDmAiXzzd18d0L4fGzZ3694bgLdLPsg2bVBfp5jQ/U5ok74Rnfd3jECU879RVcI1xRNMH7vqiLh5P3xTMK2Ite0XtOOWu4rqqenz3v6wFPQ+i/eb+4trCpJ57bjLrHCy988077N2/eFS9ODfT3/Rbdq0FNvlNVTSL1912bJw28RqPi3w/2ajsdHd6qLe5l8BbOXSUt/MIlQixy1+vQk+RvYSQ3/ULMHX1zXr4Qf/TubeOdvzkvX4TJyt2plMcN9VHem29U3xKoRNjn979KtJP5/lej1drvbT7697/W+klU0uLmhMgPcnI6Mq2e+NcvjLpp9dU7OgXql7/+7OxehMcyHGsm99pGTzttPDb+4ITx2JeE1kt38fhCz8QvwfZu40GN3MMtX/pjfgHo1QGuf0iEyzbzrd4g2X9/RJ6pH2X+9CQhbwQdnyS0N5skTgAg5mdr/tmaf7bmzwnrd/Oc8Mk7K08GunBOOKffonUcMBGeaLveLKCaIRE48X+7G2o+HkHUISpIYEtSFUnBpdwE1G/xQ2h5HoIzrZ0C/rTO9XdHu83axt1NuvHypXF3GW3cXAnd7z8Uz4ofrvSJPslMnWXmgzf3HthwZvYGTX5dZgf+pbq+W7CmPb9XJt9b51dZEzi8zSRnmzv9r8VVbm+Z1Xrw9NuFHbYfJvOf2e08fZigjMtodnv5cwN0kL899yAqxtqoaS/a2e0vJ/IWtxGci29vooX7vd+0p12FDexgokWzyWWwO55H0UT568G3lJB1WlvbQnordaxueD1NF/b3H9n4xsxv583sbgge/v7X/d3CWY9//Yj+7igpy7umDT971nhpT40L7/Kb4nbac/cmXV8P7OkP2CX+g73Mrgd/OWzIYH3DcMJW1huON860pffzbs7y2cbJg4BNg+3VtJWzrAVrM+VqOlJsy857wMNComVwXgNaxjpAy72A1gyN1MlaGZuON72hjTQN5KjIC9dtnSnRDPis9QZwXd7aMGucgb55bzjb9CxYZ8pQtoZyQH/zamqnKMcJDZPTbKCxtCy7n/U6RtrroGzQYYjnwYawD8caw5p92O9Y57Q+6NgH2ki9ms40YWf4PILztsoyQ4dzuOYW9QEbZI4VgI1mOu0TPrN8JNZsET/LAwP2hPzcrsMx6Ql7Qj8Cfxf4R4bkh2PkT6+mfQX2LPj7qFPuZKCT1Sd+Z2AoDuqU98E2zOT83U3vgAY+2zCUOUVfBeAnXNMDnQAX5TV1WDPtyT1ZfYPzj4B/hnsCnpbJ/e7BnrroY9gj+G4YcN+BfhVaBp8H3E7Mknr2N2xKeupge0PoqQp/KrCnbc8iPJhOxzDJzkPQzWop5Cf4TH6YjsDfXfA/+T4Hn6F8xJXes2bke5BvEi0Ee+UjSTPI9lOGtlG57xn4HmROx7BOAHugNWFPDGloO1PI0QTmNcAd8HGMwZ657aag5/QnI9wNQPesoFmClnPZiL9uxmUjLkdCzkjluEMse3LvWg9xMeznMj4gXmC/I5P4c/AX+XgMuAu2nB/jkEl+8DHnd0KKU+IHe1IsOBbEGpcPuBvnXE/EIK5vq+BP3SF/9AFz4BuUP0R7dQt+sve0D7gIVKeQ3yU8AA/kkhmXD7in+Eb9hzaPxRxtgXbuonyV256BnfsYNyn4M3dGW0lTC5o1sYROCmKM4wJlijUlzZqZZRrsdzjep6W9IcYe4/iiOER9Z7CfQHd4HEPuIR6T4piwxFSwrcn5EZ8eYinHPAKxjPwYu6Az8tuIIYP2DpiGnIH8GdjDoJjd7ZPzY44ke9hpr+Cf5Xu6M8Fv7mzE5HWGoJmUN4eYlcEHIAfj2eFxlKPujOw+gzhkOZfDdI4btsW8CcekJ+AWdIW8T34PUh7HrQ3pAfUBsGqwwk4B2AH2kmEcdmVu2O74PUXmK4Z5gvPrTNmK3BJkKB9zk5P/sFA+5CYDcJMzy8McTnYGH3E/5S2wU3fLcxPiNsDcBPFqaAwahOGQ+5l0mY40zBm9LkM8QXxjTRvpmA8FbnEvmIcAh4ArytcUdyrFzdADm3k8bqFGkU2H5G9dxiKjWBgB/r0tjyWWihqg4jqONeKxAPnWIX6MZbkm1kfiVzD+Bb+G/qE9Yd2Z3qNOO/sP0X+eCnWa50Zan9PkPknmtIW1LOW1EmvpOJV4LK4LZXzMCr0LfA6LHKRSLad46ysyh/WGFMOw13EmaueW11YbcZrymNir8YBz8D+vMyAT8gnwI367oiYwqoO4R/Il7xFyqu2Dkvyc9p7PRMx0U4f3IlvEpdSR1z6i6Xt6Ey/f+84+UMe33OaAC8DxYQ4g2s+lgzkR4iSjGpejPraoJ5gPUB9PoRo1QrzZiE20uY469DgOoG7w/oTXCU4DbJhOp1RPMB5SnruLerLFWrarO6I3Gcj9YF4O+H4sWTPlfjDWZljf0D46+oevyUzq1TolfQBrsw1fE/JlLnoY3r8ZrItrBVCvcH2s44c508Z+BWKZ1teBT0f/gf5FzsQ+BW0AfSr2UEbRu0yxrgUYnxr3qaeL+DTAHqbD85MOnzHmsa8yOXaJZlIfayE2W8pQ6oE4y6l/1HuUM2db3s8w7Buh36R+yCQ7diDnTLs7O2CsYr+Uoy+5HSG2Ut5PAf9A2rGvMt5P7fMrDsXRbMffaQl+u4aGvpFrop60JuQAuWZLl2tS30r8LZ3HN/Ijzokf+utA8us9qZM1yiX/jtY3Oc3eMNo7xkagFjScAWDuQR/3+D6xf1aE7XSWSZonrhubTnEd+pqu0xxL7CekWCY5MGsYXA70ZRg7xN/Xe5RLRjnvJ7iPhBygMSk7hdzM14S8LWhbimtBc4QcqHm5lOMMJRag3y/WxP6OYVyabLemSr6kWSTICn7yG/IHudAzF3oiv7ajBZIGedaWa2JvS2vKvgXXJPxxfG6dQveZ5E/3dDIdsSeqo0DD/ozTAuzJNL5mn9ekvGtgTyfsiXkgpTXBnsV13B5wnS3mH7ouE9dlot9VKV+EXA7m8GHBb9OMiLVod+xBTfC0AqtUH0UeIhnYN2J8FHmI1zfgp74wxxlM5qGR7FnSXX3zRH3b0WC221B+3ec9WO9mpuzJZjjTmcI3xbzaw34D4or0wbmIZoQAa5yo7f0tx7/Mcby298R8JnMc5Z7hiMdPKUcWORjqIq7XUsRsBnkVawbWJKoZ8rzO/QG5C+soryG72pB7NDcPKed70v57tkbdZ8rO1gf1RvDzXmLEsTjFnmxsCH5d+ErsB7ESGLIO7PsS46fH+ydZI6F/s7HWZjeh/XA93T7c5sbFle5o8BNvMYn7Ou14NfH3nilxYnEb6az8UuXbPxw6+ObAqT6Mp2uP/I55+WrQ7tf7693/Aw==&lt;/diagram&gt;&lt;diagram name=&quot;Mountpoint for S3&quot; id=&quot;UHNeG3pcfjs62VELV7A5&quot;&gt;7Vxtd6I4FP41fpweXgTrR7V2tqczu57j2Xn5tCdKRFYgLMRR++s3gQQJSQW23QotczqtubkkkPvc1wQH5iw4fo5BtP2KHOgPDM05Dsy7gWHoQ2NI/lDKiVOsUUZxY89htDNh6T1BRtQYde85MBEYMUI+9iKRuEZhCNdYoIE4RgeRbYN8cdYIuFAiLNfAl6nfPQdvM+qtpZ3pv0HP3fKZdY31BIAzM0KyBQ46FEjmfGDYA8M8goE5HVCa+GPOYoRwJRtnDo4z6NPV5+tqPlqP35ff/sD6/mHnzYO/Vu7dp+xm7l951HyVYhjiN5/dyGb/Bfw9kxpbcXziYjxsPQyXEVjT9oFglcy7xYFPWjr5uPF8f4Z8FJN2iELCNE1wjHaQE8m9GrcjCxrp/dZ6VrYmv2CM4bEApnrPfl6BzxAFEMcn0mbDDBmiTmLzcMZnjsJtEZucCJhOuPnIjYRCeJlcXleMpkKMNgioqMJVEvEpXo80f1yS3zN/n2AYS5CpgwlHs9famPRQKXvEakx8zw1JH0Z0jg0K8ZKNqLF2EVGmcU8+mNMKdAI2qA83OL8Lbo2ui8gi5m4VmDNbjrlhtelIdhCvt0yCEfJCnD6KNSU/ZK5Z9t8irDNKuTEsBVFFG8lEXWYjf3TVDGWiijaSibrMRlv8rkWiijay5DsuX60rrtZLV1sU+GiPfS8kGsWd93NaMi8ZaUKf342oRVNo5Sb9R3ockGyhw4blKvoFrKC/QImHPUS1aoUwRsGzOsyVb010i1gJ0W1Q/c5CFt1Q6DtIouyxNt6R3seUxAAR7QyOLo2XbsAhGd7EMEH7eA0f1vR+pqSZfRK54C5pi6abSkVvtZ5bklpDh8R5rIlivEUuCoE/P1OnMdqHTg6fM88XRIGRAuBviPGJIQDsMRLhAY8e/lH4/JMORdQia90d2chp48QbIVm0H8VG4SraPF+Wtvh1zYCRAe4Cn53x0UV6HfjE0AfY+yVG1SqwNJnjPNOC2uVzhGSOxRBJ5/E6nxGD2IWYXdUAoQJO88e7Nrrtai8mgrki4JAsKhyPLO2ZQPnq4XCeYXFhG5YUEHM8FE1WGRMtM1m3klC/EhniiCF9Q2RgaJMAPBFfYWhLMx3e9mmEuCJdtks/zZYPhH4XE82TI1wiCHxJ8EzACplLTrHsOwPPcVIjqkKaiMX24cesh5+Wu7zxNV2edjMec0eXOTDbvOz3SGMBY4+sIAVUm3whL0VlPqNaY6/gNFsAN75KtVOpAmqEOD21GIloMUqhPy3FzI2LoX85UbvRtDT1oDgUkySWwZSoYyVVlcZRoCsHHqVXk/4amZpxW+JN06PKlKXSDmc5TDnt2O1XMA6JpiU3XpZ0RDHLOSLkXN0gjyzBHvO6QrczEF3v9eMd6EeIHHh1BakuAHdRQeQy/u/5Yl+MWutHozFMvCewygs0ohZQSNGQJmElnQYB8dUhYVtVkLA6CAnVlsDH3tnpomLLRfYFjzJ6va6KhURE5Ht4BUgMOwgJ62Mrtm7LYuzknq1uS3Lrqwz/rcrAzsX0VYaLeBv1WdQ7yKJaWGUwFJ61i8GWvG3QK0j3FKSNZQZV0NJFDRlLGtLXGWpjolRnUGGig4UGQ+vzkXeg2oZcY+8rDbXjIRES+a54tysNXJEvabZLEtLoheufv4HAsDGoeci/Wi6mJQpmLMvFtBWC0cctl0yN4m4TyeSSfgPRMFHkm95FWaiUpPWyqHEOutEJsjrecASArtuDFxxozyH0P51oN1SibLvBU5VWs2Nh9HiyIFP7nz3iHZ8ynzUhDLoRHbNbSTsO7OlpV4jiAPhpJ7+YHzUTjqJlE5JnzObMOJ5zxHVdpPrkNcGuePJav+S/JU9/Rajx82eyEVHXgsftBl7T0lz/LkVr3qUYTSZFU/ze36VIzFYofikJ43FeRcDNaW01A6oC5Fv4n/QE9Gq/Jiam9z9NYKiLMFTkF0p3ZLQbhzxMu9bOZHFfkveoNyUbIqByJ5EH85U7iZzxY24lmk0PZPbxSh+vfMx4pTNV4dVs9232pxMv7AAm+Clxd/dr9qUTLwpINBaQKGOOyeKhYcDRV57FCqc2FCIQfSi/gNWKTaWUt+JLWfi7oefvwzHn/wI=&lt;/diagram&gt;&lt;diagram name=&quot;EFS&quot; id=&quot;9rkRDVDiR6M2JkWisdge&quot;&gt;7Vttc9o4EP41fCxj2diGj4GQNNM0kxuu0+a+dAQW4IuxXFkE6K8/yZaMZQlMeplip2SSYK1erX129ezadJzRantLYLL8jAMUdWwr2Hac645tA9dx2AeX7KTEdnPJgoSBkO0Fk/AnEkJLSNdhgFKlIcU4omGiCmc4jtGMKjJICN6ozeY4UmdN4AJpgskMRrr0axjQZS7tu9Ze/hGFi6WcGViiZgVlYyFIlzDAm5LIGXdsr2M7W9hxhh0uU3+dEcGY1jaTjVfbEYr47st9vQZ3X748LIJd+Jdt/xje//348OlDvpibNx612CWCYvrbZ7fz2V9gtBZaEztOd1KNm2VI0SSBM17eMKyyeZd0FbESYJfzMIpGOMKElWMcs0bDlBL8jKSQrdXu+y6ys/WedK9iT14QoWhbAtNp977fgVuEV4iSHSuLYXoCUTu1uNnjs0DhsoxNKYTCJhbFyK9SCmsr9PK2anQMavTgiqsqnqaJnOLtRONPE/Z/FK1TiogGmVMwEVjezBqwGq7lkHmNqyhcxKyOYj7HHMd0Ika0RLmMKMe+YRfOsAadUAwaoTktViG90XkRWcZc34A5p+GY69W7jvQZ0dlSaDDBYUyzW3GH7JfNNcr/XNZ0xCVdfsBpQpPM14VAb8Y+gGmGqtAk83Uh0Jvxkly1KjTJfFdfcbU3MPQGld4uBz5e0yiMmUXJw/uQlYwrTprJx9c+92gGq5xnP6wmgOkSBWJYaaL3cIqiR5yGNMTcqqaYUrw6aMPS+GbMtpiXUI8Nbt85ZQG2wd5hmuS3NQ+3fB1DxgESXrnaLjhf6sJN2usSlOI1maG7GV/PkBXzK7UVek6bYumO0dAbbeeuZtYoYDxPFDGhS7zAMYzGe+mQ4HUcFPDZt7nHHBgZAP5FlO4EAuCaYhUeaBvSb6XrJz4UM4u8dL0VI2eFnSzEbNO+lQulXry475aVlH6PiIRs1zlMM+Hr0JKj8Eg7T/BvSBZIjPc9fhr59m3ce/E/UwT+eUqmT4LlWXyH3wZ7BEWQhi8qJTch7TVz7Gd65E59T6+cgcqvgCT7csZ8A0SvV8BbAXlxe+c2Da/+CFQtoYataO4YDXzXOsCyz86li/BMKls6spK/k3go+ztJuhvq73wTl46oOKMU7Xo/1jzKHCpXC/F5vAuv+JBm7u+KNQBWss0Xn1VsxHbxqhiTFYwOzVIl5g83Ezk326B8enVJU1KVaA0rGGbAoRo6BQoNwDSf8navcsoDA29YhUGQHSAadTg72h1QQXvP1dBuOt3tZqO9r6H9agV/Mg7FYrybLMab3LH/14SdIXqgJ5Bx0IUdBomm4INQMPlM1aueHRu6J9SxYfKEDWd+g3MyP6s7GEi+l/M4zzlO/1ihyuJ+lRK+MfuTrqNM/45Z4xnoXwPgJnfp5IxCCTVKuJp5jFT1GJUImGckx/bRCLiar+haVhaBcxyquQIRyFekA6PUlM3gQDcO7Ge9Wf0JCQu7X2mbZQlqI/daP5yH8tXo+3k9RSRmlpZ2wzz2TogIvRMcnN0h+67ij2V6rd2BOAAX+3gH9hHjAJ3dQOqfg7TRQPSnWQ/FZh9lraezUYJY0AanRZ5StQIOKU5pUpHZfAUhPjskPLcOEm4LIWF6MvZnP+Bso2Hrz5oeJcu42HUdF1IRUTzKLkGi10JIuH+2YQNPV2MrX10Anqa3S5bh17IMInN9yTIcxZspv3+JotoWRTUwy2AbTtY2ki39kcDFQNpnIE1MM5hISxstZKBZyCXPcDImKnkGEyZamGiwrUs88g5M29Zz7JdMw8l8SIVE8VS83ZkGacjHLHvBAtLkf+5/8UUcgY3Oid91qdeL46qKGeh6cTyDYsCgMZo59rLk5Q309r2B7l9dAeAdJf7v6g30efo9pTAOIAma4KmrHgHIZ8sll+D3dY8gZQ11CPrhrb7MdjnFT8FGr0LQ+wMNG414mS1rW/M9T/nG+P4rts74Pw==&lt;/diagram&gt;&lt;diagram name=&quot;FSxL&quot; id=&quot;L7eP11DaL7btnpIp1ead&quot;&gt;7Vxbd9o4EP41PIbjC749cgubbtPNKT297EuPwAK8MZZriwD99SvZkrEslUuKnTY1Jw3WWL7NfDPzjTxNxxyud5MExKt75MOwY2j+rmOOOgb5uD3yRSX7XKJ7npFLlkngM9lBMA2+QybUmHQT+DAVJmKEQhzEonCOogjOsSADSYK24rQFCsWrxmAJJcF0DkJZ+inw8SqXupZ2kP8Fg+WKX1nX2J414JOZIF0BH21LInPcMYcJQjjfWu+GMKTa43oJ7u/c5Bv4lKKl9uFxhv95/3F9k5/s9pJDikdIYISve2pmyycQbpi+2LPiPVfgdhVgOI3BnI63BCUdc7DC65CMdLK5CMJwiEKUkHGEIjJpkOIEPUIu7Bim4ToWJPoanPkg7IGfYILhrmRG9mATiNYQJ3syhe3tMRPtxeH2YPDCrKuysbkQMJAtizMfFEk2mC4v0Kup0KsN1lR30SyNM1Vo1xSN/56S38Nwk2KYSDY8x0i+Zs81j+yhag+IA/XDYBmRfRjRayxQhKfsjBobl01sGrdkwxycgAtgJw3hAhd3wR2zFoiUQeAqQGDWBoLeaedKHyGer5hKYxREOLsJa0B+yG0N838WmTqkkq5hKYQqmSMLdXka+dJVV6gKVTJHFuryNDridy0KVTLHku+4erSuOFqvHG1RJKINDoOIQJwnlh/BdlwJY0Q+Hjk0OCjcZJF9yB4fpCvos9Nyn3kLZjB8QGmAA0RhPkMYo/UPnYp7w5yAnbitGFipw+XpVDcUDgjSOH+sRbCj9zEg+SmmO9e7Jc3lXbBNe90EpmiTzOHdnN7PgAzzLXEWfExrdj1T6Xk1OZ4l+Rn0CSlgQ5TgFVqiCITjg3SQoE3kF/Y8zHmLqKUyi/wHMd4zk4ANRqK94C7An0vbX+ipCE7z0WjHzpwN9nwQkcf9XB6UjqLDw2HZSDjuASYB0RfFTSa8zHw5LI7Ms/N5VHNHjZzAEODgSaRbKpOyQx9olDukbtNyhNytW1pXK30MUzwjBskSYnaSCk6Ku3o+dOzTMVtEyol8J8UP6DmW9gPiVBc9Kigs17F5JkHq1eWhrqTm/hp8J4HJ0G6nu4znExajvSV0JoGU2EzvyO9RQnAmsxuiBXxM60y7CoVL8bcapteB72fhQWVmEQjNGc86z3i1hVfvJcOr1vU8Swixtnk8xpJBNVQ+N+5eOcTyGjmPaafd5Xqx+Kfsz2/7bGJbMqPAmjKnSkWnqhAxWjqOjaNErEqbSfrIiCAFhkhZGZ+sSD2lVEWqKfKUJ3ayo8n+M3iz4VbmZmT1JIE8GapyRlklgY+bGUwiAv20G+QUME4YA4yRX1fMciwhZLlyummUD+p6C9hXANgI+bAuxJ5eQWoWsfLC3Lvi6Y9Sn/MpDakFg+9gVhSUIiypjWkWTlkJegGrqstGtnXKRlajNlIt8r3KxdNmoS8vmz3wTPWnIt+plACabKNeozayXiX0dfvFXxzotqTItrh6XnHF1pV+t+LKabnqK+CqzRVXhiIZNJuw5cW8FrG/H2IbrK5UebZZyHoSZNvyqlJeqYzUaH3F173/AJLZKPgNeTWsLbBEGxXvXF6qwOJQP4b9JaH98U8qpOi7Y8bqlFvbVIoyLVFTngLMtqpi8mpTlbxecPRd4p8Mc5Nbncci15XMp9cV5B8nzvZ2O3/z4b5vTvp3eDIxVjcyrH/VVg1FpZuS2hL3aZMqhUsI0jSYc/FtEBaX+zW6PHr4a39oj51NGH8cesN9fD95c6N4A7nc+P9++gDw+H2I3o1Gk96XpxqKZHU3SM8Ww0sVd9fr/jimjbZj7/fr2HP6fV23j1aGr6ljb5HuvpK89jXMs1qNKaPan8VfTZVShuPKGYPLrp4xlK3VIWb6FpzV/rahzfkDYWvJvo8fQnfc5Jm7TyboWrzLDtOyHVv2oHRXhJI1CJVXmZJ71Ubv+/xq5HnzC4o3MUuqEmmimrScSyfUGCXEScSofozrSMCvrVzSK3Vo78x+J+MKHEWZ+67dE3hOVeoAUA5ntXbIc8V7la4No+vosuq5eQR2bzhdw6tJ/aoF8Qu913iO9xZVBHXj1i+til+6epf2yBcfBVSUr87qgsmlq9Atd2u528twt9Ss003NSvo0dVUYN90iYAt1vltfHJfX3JuJ4xkLm23mxPnbOE7X8Htd3mNTLEm/NMXiLcUv1fZQbnrge9TrQJeZpbz+coxbnlx/ufr/xvk5c13aUNsm2zbZvsJkK5VMJznxld70keHhDw/kq5+Hv99gjv8H&lt;/diagram&gt;&lt;diagram name=&quot;FSxZ&quot; id=&quot;8ZoqpUERLiiROKIVlCK1&quot;&gt;7Vttd6I4FP41fqyHlyL6sVrbnW53p3M8Z7e7X3pSicoUCIXYYn/93ECChKRiZ7sVOvZYNZeQhNznuW9gz56E2WWC4tUfxMNBzzK8rGef9yzLdGwbPphkIySWU0iWie9x2VYw818wFxpcuvY9nEodKSEB9WNZOCdRhOdUkqEkIc9ytwUJ5FljtMSKYDZHgSr92/foqpAOHWMr/w37y5WY2TT4kRCJzlyQrpBHnisie9qzBj3LzlDPHveYTH7Zk4QQ2thNdA6zCQ7Y7ot9/XYS3T2FG/fy9vHx0SR/LcOr8UmxmIt3HrXcpQRH9MNnt4rZn1Cw5lrjO043Qo3PK5/iWYzmrP0MWIV5VzQMoGXC14UfBBMSkATaEYmg0zilCXnAQghrtYaug618vflsOKE4q4Gk4fLNfdRe34FLTEJMkw20+XSnHFEbufm8xWeJwlUVm0KIOCeW5chvUgr05Xp5XzXaGjUOUMhUFd2nsZji/UTT32fwPgnWKcWJApl9MOEZg7kxgiMMDT5YjbPAX0ZwjBI2x4JEdMZHNHi7iijbuoAv9rgBnYgPGuAFLVchrNFhEVnF3FCDObvlmDttNh3pA6bzFddgTPyI5pfijOEFc02Kfwe6TpikzxycItTJXFVoqt3gw9TNUBfqZK4qNNVurCVWLQt1MtdRV1w/29ScbdbOdhjwyZoGfgSMEs77NZZMa0Ya5NNzl1k0DSsX+R8c8VC6wh4fVlD0Gt3j4IakPvUJY9U9oZSEr3JYkG8ORAIrIbsNxu8iZDEtDd9RGheXtfAzto4xxAAxOxhmSxYv9dFzetpPcErWyRx/mbP1jKFZfJN74Ye0LUy3tURvNc8dhdbYgziPN0lCV2RJIhRMt9JxQtaRV8Jn2+eaMGDkAPiOKd1wBKA1JTI8cObT28r3f9hQQIuidZ7xkfPGRjQi2LTbaqNyFmtuT8tb0nk3OPFh1xlMc2Fx0exKfwIrsFs5LHf0G/xHTCU4QNR/klenQ9Bb5tjOdMOM9TZssh1XiptMx+gblT/LlhdAUbLElA/yBhRLWC6v9tAMGDR7OhnwDUGJYnXxyHWMV4Lpg4fMZT4pdC/sVTWAsTR2TQTXLbVrrqLVsxC9gPewjItZ1mMJL0S2xtcYR/9e5NHu7Au8nyfAOjXkBe3QXVrm2tQoWPGSdWca+p6XW1UdrGTgtRAszn5gabkTHB7SCRr90Ui4vsKlDezdnhAadYf2s97x/3aEo6Jf4TGa6PoRDrMFaBu9MbWqYEaK23ODkcoGo5YKsNLM1NqZCtQTN/D8eSrCUCgnTTyjqUlHWqkurWMw1w7s5mfD8T0yN2tY65unS40pTKMZLnKaehrysL7HSQQ8S/t+kYTECc9BYuId3B67jmSORZ2h2xmJ8DFHfnSaHxHx8MEJ0lwQ7iJBTIUgf5abvTNo3T8YTXDqv6D7smAjs4BBigU0KS/xvCEePjgkBk4TJJwOQuJ4p+czEFu90XMjoowjr5tiIRkR5T29CiROOwiJPe7DfGZimwNVjZ28h2setND+qWsMJq/gHosMmk05ZlGdzqJaWGWwNJ61i8GWeofgSJDuEaSNZQZd0NJFhgwVhhzrDHtjolZn0GGii4WGPW5e/Gr5SAepbRmKGo+Vhr3jIRkS5XPs3a40WGpVWcHDEhLS+NX957804DrvlfvyUXqxHVkxIw1VBxrFmKOWa0Yt7u5+luXI4n3QIjJkYdmHQwUupg4u7eHx4Cr79pXcfafXOLiK7lBmbS5PVMu+O605Prjdmge33bMzE1D5qzy4vUizO7BcdwTs1svisA9xv/YkrLixVjEK7lC1CUL2YTYh79vwKzjxoO32B4j29Ac=&lt;/diagram&gt;&lt;diagram name=&quot;FSxN&quot; id=&quot;X0yz5l86bintv9EMTne8&quot;&gt;7Vttd6I4FP41fhwPLwL6Ua3tznS2647b3dlPPVGiskXCgVi1v35uIEFDUrGz3Qpde9pKLiEJuc9z38CWPVxtbxIUL38lPg5bluFvW/ZVy7JMx7bhg0l2QmI5uWSRBD6X7QWT4BlzocGl68DHqdSREhLSIJaFMxJFeEYlGUoSspG7zUkozxqjBVYEkxkKVelfgU+XubTrGHv5LzhYLMXMpsHPrJDozAXpEvlkcyCyRy3LbVn2FrXsQYvJ5F97mBBCK7uJzqvtEIds98W+3rhPj+7N/fMt/fbF3jz8vrCC+0/5Yq7feNRilxIc0Xef3cpnf0LhmmuN7zjdCTVulgHFkxjNWHsDWIV5l3QVQsuEw3kQhkMSkgTaEYmg0yClCXnEQghrtbqeg61svdlsOKF4WwJJxe2bp6i9vAM3mKwwTXbQ5tN1OKJ2cnOzx2eBwuUhNoUQcU4sipFfpRToy/Xytmq0NWp00YqpKpqmsZji7USj2wn8H4brlOJEgcwpmPANd2b04AxDQwBWox8GiwjOUcLmmJOITviIBm8fIsq2ruHAHlSgE/FBQzynxSqENTovIg8x19Vgzq455jrVpiN9xHS25BqMSRDR7FacAfzCXMP8z4GuQyZpMwenCHUyTxWaajf4MHUzlIU6macKTbUba4lVy0KdzHPUFZevNjVXm6WrHQZ8sqZhEAGjhPN+iSWjkpEG+ejKYxZNw8p59gNnfJQusc+HFRT9iqY4HJM0oAFhrJoSSsnqRQ4L8s2ASGAlZLfB+J2HLKal4TtK4/y25sGWrWMAMUDMTq62CxYvtdEm7bQTnJJ1MsOfZ2w9A2jmR3Iv/JjWhem2lui15rmj0Br7EOfxJknokixIhMLRXjpIyDryC/js+3wlDBgZAP7BlO44AtCaEhkeeBvQ7wfHf7OhgBZ562rLR84aO9GIYNO+HzYOrmLN/WVZS7pujJMAdp3BNBPmN83u9CewAruVwfJIP/dfYirBIaLBk7w6HYJeM8d+pjEz1vuwyXY8KW4yHaNtHPxYtrwAipIFpnyQV6BYwnJxt+dmgFvt6WTAVwQlitXFPc8xXgimzx4yF1mY0L1IQ6uCZpHo1dSueYpW+yv0DN7DMq4n2xZLeCGyNe4w7ccxHPx290d/DJ/DyWf4f5UA+dTIF5REjymbK1WjZ8VZln3qKvD9zLjq0CXjr36YsU/ETM19YfecvtBo93rCA+aezbWPO0RolP3azzrJ/9of9vJ+ueOoYu17+M0aoK33ygzrADNS+J4ZjFQ2GKWMgFVoRtbRjKCcv0EAkGUkDIVy7sQTm5K0p5XqsjsGc+3AXnY1nD8hgbO6pb5Z1lSZyVSa4Ty1KWcjj+spTiLgWdoO8lwkTngqEhP/7PbYcyRzLMoNzU5MRJ37wo9G8yMiPj47Qarrwk0kiKkQ5K7Y7KNB6+nBaILT4BlNi7qNzAIGKRbQpLzS84p4+OyQcJ0qSDgNhMTlgc9HILb6vGcsoowLr6tiIRkRRRp6AIlOAyFxwuOYj0xs01XV2MhHueZZ6+0fusZg8kLupcig2ZRLFtXoLKqGVQZL41mbGGypDwouBGkeQepYZtAFLU1kSFdhyKXOcDImSnUGHSaaWGg44eHF/y0faSC1LUNR46XScHI8JEOieCje7EqDpVaVFTwsICGNX9x//oUDrvNWsS/vpRfbkRXT01DV1SjG7NVcM2pZUPtKC8wZMrpOoeEu2FH5JZcLvU+BUceUTX7XVnBkmhocdWoDI3dgfvHXt+bcv38w/hx/my0d45Nq8o/nO5cXu2vzYrfX75umezR//Egvds/T7QOYtAfI+FAcP8BMWQx5fstQfl1WWIEDy+B1VcMgZO9mGLK+FV+VE2/j7r+laI9+AA==&lt;/diagram&gt;&lt;/mxfile&gt;" style="background-color: rgb(255, 255, 255);"><defs/><g><rect x="41" y="41" width="100" height="100" fill="none" stroke="#2875e2" pointer-events="all"/><rect x="1" y="1" width="180" height="300" fill="none" stroke="#d06c09" stroke-width="2" pointer-events="all"/><g transform="translate(-0.5 -0.5)"><switch><foreignObject pointer-events="none" width="100%" height="100%" requiredFeatures="http://www.w3.org/TR/SVG11/feature#Extensibility" style="overflow: visible; text-align: left;"><div xmlns="http://www.w3.org/1999/xhtml" style="display: flex; align-items: unsafe flex-start; justify-content: unsafe flex-start; width: 178px; height: 1px; padding-top: 8px; margin-left: 3px;"><div data-drawio-colors="color: #232F3D; " style="box-sizing: border-box; font-size: 0px; text-align: left;"><div style="display: inline-block; font-size: 12px; font-family: Helvetica; color: rgb(35, 47, 61); line-height: 1.2; pointer-events: all; white-space: normal; overflow-wrap: normal;">          EKS Cluster</div></div></div></foreignObject><text x="3" y="20" fill="#232F3D" font-family="Helvetica" font-size="12px">          EKS Cluster</text></switch></g><path d="M 1 1 L 31 1 L 31 31 L 1 31 Z" fill="#ed7100" stroke="none" pointer-events="all"/><path d="M 18.67 12.52 L 15.8 15.85 L 18.92 19.49 L 17.75 19.49 L 14.95 16.22 L 14.95 19.59 L 14.11 19.59 L 14.11 12.43 L 14.95 12.43 L 14.95 15.38 L 17.55 12.52 Z M 25.89 19.26 L 22.52 17.24 L 22.52 12.43 C 22.52 12.28 22.44 12.15 22.31 12.07 L 17.47 9.25 L 17.47 5.18 L 25.89 10.15 Z M 26.52 9.55 L 17.27 4.08 C 17.14 4 16.98 4 16.84 4.07 C 16.71 4.15 16.63 4.29 16.63 4.44 L 16.63 9.49 C 16.63 9.64 16.71 9.78 16.84 9.85 L 21.68 12.68 L 21.68 17.48 C 21.68 17.63 21.76 17.77 21.88 17.84 L 26.09 20.37 C 26.16 20.41 26.23 20.43 26.31 20.43 C 26.38 20.43 26.45 20.41 26.51 20.37 C 26.65 20.3 26.73 20.16 26.73 20.01 L 26.73 9.91 C 26.73 9.76 26.65 9.62 26.52 9.55 Z M 15.98 27.1 L 6.11 21.86 L 6.11 10.15 L 14.53 5.18 L 14.53 9.26 L 10.09 12.08 C 9.97 12.16 9.9 12.29 9.9 12.43 L 9.9 19.59 C 9.9 19.74 9.99 19.89 10.13 19.96 L 15.79 22.9 C 15.91 22.97 16.05 22.97 16.17 22.9 L 21.66 20.07 L 25.04 22.09 Z M 26.1 21.75 L 21.9 19.22 C 21.77 19.15 21.62 19.14 21.49 19.21 L 15.98 22.06 L 10.74 19.33 L 10.74 12.66 L 15.17 9.84 C 15.3 9.77 15.37 9.63 15.37 9.49 L 15.37 4.44 C 15.37 4.29 15.29 4.15 15.16 4.07 C 15.03 4 14.86 4 14.73 4.08 L 5.48 9.55 C 5.35 9.62 5.27 9.76 5.27 9.91 L 5.27 22.11 C 5.27 22.27 5.36 22.41 5.49 22.48 L 15.78 27.95 C 15.84 27.98 15.91 28 15.98 28 C 16.05 28 16.12 27.98 16.18 27.95 L 26.09 22.48 C 26.22 22.41 26.3 22.27 26.31 22.12 C 26.31 21.97 26.23 21.83 26.1 21.75 Z" fill="#ffffff" stroke="none" pointer-events="all"/><path d="M 321 151 L 351.63 151" fill="none" stroke="rgb(0, 0, 0)" stroke-miterlimit="10" pointer-events="stroke"/><path d="M 356.88 151 L 349.88 154.5 L 351.63 151 L 349.88 147.5 Z" fill="rgb(0, 0, 0)" stroke="rgb(0, 0, 0)" stroke-miterlimit="10" pointer-events="all"/><rect x="221" y="131" width="100" height="40" fill="none" stroke="#e97501" pointer-events="all"/><rect x="221" y="136" width="100" height="30" fill="none" stroke="none" pointer-events="all"/><g transform="translate(-0.5 -0.5)"><switch><foreignObject pointer-events="none" width="100%" height="100%" requiredFeatures="http://www.w3.org/TR/SVG11/feature#Extensibility" style="overflow: visible; text-align: left;"><div xmlns="http://www.w3.org/1999/xhtml" style="display: flex; align-items: unsafe center; justify-content: unsafe center; width: 98px; height: 1px; padding-top: 151px; margin-left: 222px;"><div data-drawio-colors="color: rgb(0, 0, 0); " style="box-sizing: border-box; font-size: 0px; text-align: center;"><div style="display: inline-block; font-size: 12px; font-family: Helvetica; color: rgb(0, 0, 0); line-height: 1.2; pointer-events: all; white-space: normal; overflow-wrap: normal;">Amazon FSx for Lustre CSI Driver</div></div></div></foreignObject><text x="271" y="155" fill="rgb(0, 0, 0)" font-family="Helvetica" font-size="12px" text-anchor="middle">Amazon FSx for L...</text></switch></g><path d="M 105.85 99.9 L 163.5 99.9 L 163.5 151 L 214.63 151" fill="none" stroke="rgb(0, 0, 0)" stroke-miterlimit="10" pointer-events="stroke"/><path d="M 219.88 151 L 212.88 154.5 L 214.63 151 L 212.88 147.5 Z" fill="rgb(0, 0, 0)" stroke="rgb(0, 0, 0)" stroke-miterlimit="10" pointer-events="all"/><path d="M 90.89 81.53 C 90.63 81.55 90.36 81.61 90.13 81.73 L 79.76 86.68 C 79.21 86.94 78.81 87.44 78.68 88.02 L 76.12 99.15 C 76 99.67 76.1 100.21 76.38 100.66 C 76.43 100.71 76.46 100.76 76.5 100.82 L 83.68 109.74 C 84.06 110.21 84.64 110.49 85.23 110.49 L 96.75 110.49 C 97.35 110.49 97.92 110.21 98.31 109.74 L 105.49 100.81 C 105.85 100.34 106 99.73 105.87 99.15 L 103.3 88.02 C 103.17 87.44 102.77 86.94 102.23 86.68 L 91.85 81.73 C 91.55 81.58 91.22 81.51 90.89 81.53 Z" fill="#ffffff" stroke="none" pointer-events="all"/><path d="M 90.9 82.4 C 90.65 82.41 90.4 82.48 90.18 82.58 L 80.43 87.24 C 79.92 87.48 79.54 87.95 79.42 88.5 L 77.01 98.96 C 76.9 99.45 76.99 99.96 77.26 100.38 C 77.3 100.43 77.34 100.47 77.37 100.53 L 84.12 108.92 C 84.47 109.35 85.02 109.62 85.58 109.62 L 96.41 109.62 C 96.97 109.62 97.51 109.35 97.87 108.92 L 104.62 100.52 C 104.96 100.08 105.1 99.51 104.98 98.96 L 102.56 88.5 C 102.44 87.95 102.07 87.48 101.55 87.24 L 91.8 82.58 C 91.52 82.44 91.21 82.38 90.9 82.4 Z" fill="#2875e2" stroke="none" pointer-events="all"/><path d="M 100 90.69 L 100 100.26 L 91.62 104.91 L 91.57 93.2 Z M 82 90.69 L 82 100.26 L 90.38 104.91 L 90.43 93.2 Z M 82 89.7 L 91 87.09 L 100 89.7 L 91 92.31 Z" fill="#ffffff" stroke="none" pointer-events="all"/><path d="M 55.89 41.53 C 55.63 41.55 55.36 41.61 55.13 41.73 L 44.76 46.68 C 44.21 46.94 43.81 47.44 43.68 48.02 L 41.12 59.15 C 41 59.67 41.1 60.21 41.38 60.66 C 41.43 60.71 41.46 60.76 41.5 60.82 L 48.68 69.74 C 49.06 70.21 49.64 70.49 50.23 70.49 L 61.75 70.49 C 62.35 70.49 62.92 70.21 63.31 69.74 L 70.49 60.81 C 70.85 60.34 71 59.73 70.87 59.15 L 68.3 48.02 C 68.17 47.44 67.77 46.94 67.23 46.68 L 56.85 41.73 C 56.55 41.58 56.22 41.51 55.89 41.53 Z" fill="#ffffff" stroke="none" pointer-events="all"/><path d="M 55.9 42.4 C 55.65 42.41 55.4 42.48 55.18 42.58 L 45.43 47.24 C 44.92 47.48 44.54 47.95 44.42 48.5 L 42.01 58.96 C 41.9 59.45 41.99 59.96 42.26 60.38 C 42.3 60.43 42.34 60.47 42.37 60.53 L 49.12 68.92 C 49.47 69.35 50.02 69.62 50.58 69.62 L 61.41 69.62 C 61.97 69.62 62.51 69.35 62.87 68.92 L 69.62 60.52 C 69.96 60.08 70.1 59.51 69.98 58.96 L 67.56 48.5 C 67.44 47.95 67.07 47.48 66.55 47.24 L 56.8 42.58 C 56.52 42.44 56.21 42.38 55.9 42.4 Z" fill="#2875e2" stroke="none" pointer-events="all"/><path d="M 56 47.22 C 55.77 47.22 48.88 50.62 48.79 50.78 C 48.57 51.21 47 58.44 47.09 58.58 C 47.14 58.67 48.27 60.1 49.61 61.76 L 52.02 64.78 L 55.98 64.78 L 59.95 64.78 L 62.46 61.63 L 65 58.47 L 64.11 54.6 C 63.63 52.47 63.2 50.69 63.14 50.65 C 63.02 50.53 56.14 47.24 56 47.22 Z M 56.36 48.92 L 57.98 49.4 L 56.36 49.87 L 54.73 49.4 Z M 54.73 49.58 L 56.25 50.03 L 56.25 52.13 L 54.73 51.29 Z M 57.98 49.58 L 57.98 51.29 L 56.46 52.13 L 56.46 50.03 Z M 54.05 52.46 L 55.68 52.92 L 54.05 53.4 L 52.43 52.92 Z M 58 52.46 L 59.63 52.92 L 58 53.4 L 56.38 52.92 Z M 52.43 53.12 L 53.95 53.56 L 53.95 55.67 L 52.43 54.83 Z M 55.68 53.12 L 55.68 54.83 L 54.16 55.67 L 54.16 53.56 Z M 56.38 53.12 L 57.89 53.56 L 57.89 55.67 L 56.38 54.83 Z M 59.63 53.12 L 59.63 54.83 L 58.11 55.67 L 58.11 53.56 Z M 53.46 55.81 C 53.95 55.83 53.57 56.31 54.13 56.58 C 54.71 56.85 54.82 56.15 55.2 56.69 C 55.57 57.22 54.88 57.1 54.93 57.74 C 54.96 58.38 55.64 58.13 55.36 58.72 C 55.09 59.31 54.86 58.63 54.32 59.01 C 53.79 59.37 54.32 59.83 53.68 59.88 C 53.04 59.94 53.5 59.4 52.91 59.12 C 52.32 58.85 52.21 59.54 51.84 59.01 C 51.48 58.47 52.16 58.6 52.13 57.96 C 52.07 57.31 51.39 57.56 51.68 56.97 C 51.96 56.38 52.18 57.06 52.71 56.69 C 53.25 56.33 52.71 55.87 53.36 55.81 C 53.39 55.81 53.43 55.81 53.46 55.81 Z M 57.64 56.46 C 58.5 56.49 57.66 57.29 58.45 57.65 C 59.23 58.01 59.29 56.83 59.88 57.47 C 60.46 58.1 59.3 58.08 59.61 58.88 C 59.93 59.69 60.79 58.9 60.75 59.76 C 60.73 60.62 59.91 59.79 59.57 60.58 C 59.21 61.37 60.38 61.4 59.75 62.01 C 59.13 62.6 59.14 61.44 58.34 61.74 C 57.54 62.04 58.32 62.9 57.46 62.88 C 56.59 62.85 57.43 62.04 56.64 61.69 C 55.86 61.33 55.8 62.51 55.21 61.87 C 54.63 61.24 55.79 61.26 55.48 60.46 C 55.16 59.65 54.32 60.44 54.34 59.58 C 54.36 58.72 55.18 59.54 55.52 58.76 C 55.88 57.97 54.71 57.94 55.34 57.33 C 55.96 56.74 55.95 57.9 56.75 57.6 C 57.57 57.29 56.77 56.44 57.64 56.46 Z M 53.5 56.92 C 52.98 56.92 52.55 57.35 52.55 57.87 C 52.55 58.38 52.98 58.81 53.5 58.81 C 54.02 58.81 54.45 58.38 54.45 57.87 C 54.45 57.35 54.02 56.92 53.5 56.92 Z M 57.55 57.78 C 56.5 57.78 55.64 58.62 55.64 59.67 C 55.64 60.72 56.5 61.56 57.55 61.56 C 58.59 61.56 59.45 60.72 59.45 59.67 C 59.45 58.62 58.59 57.78 57.55 57.78 Z" fill="#ffffff" stroke="none" pointer-events="all"/><rect x="66" y="41" width="50" height="30" fill="none" stroke="none" pointer-events="all"/><g transform="translate(-0.5 -0.5)"><switch><foreignObject pointer-events="none" width="100%" height="100%" requiredFeatures="http://www.w3.org/TR/SVG11/feature#Extensibility" style="overflow: visible; text-align: left;"><div xmlns="http://www.w3.org/1999/xhtml" style="display: flex; align-items: unsafe center; justify-content: unsafe center; width: 1px; height: 1px; padding-top: 56px; margin-left: 91px;"><div data-drawio-colors="color: rgb(0, 0, 0); " style="box-sizing: border-box; font-size: 0px; text-align: center;"><div style="display: inline-block; font-size: 12px; font-family: Helvetica; color: rgb(0, 0, 0); line-height: 1.2; pointer-events: all; white-space: nowrap;">Node</div></div></div></foreignObject><text x="91" y="60" fill="rgb(0, 0, 0)" font-family="Helvetica" font-size="12px" text-anchor="middle">Node</text></switch></g><rect x="41" y="41" width="30" height="30" fill="none" stroke="#2875e2" pointer-events="all"/><rect x="71" y="101" width="40" height="30" fill="none" stroke="none" pointer-events="all"/><g transform="translate(-0.5 -0.5)"><switch><foreignObject pointer-events="none" width="100%" height="100%" requiredFeatures="http://www.w3.org/TR/SVG11/feature#Extensibility" style="overflow: visible; text-align: left;"><div xmlns="http://www.w3.org/1999/xhtml" style="display: flex; align-items: unsafe center; justify-content: unsafe center; width: 1px; height: 1px; padding-top: 116px; margin-left: 91px;"><div data-drawio-colors="color: rgb(0, 0, 0); " style="box-sizing: border-box; font-size: 0px; text-align: center;"><div style="display: inline-block; font-size: 12px; font-family: Helvetica; color: rgb(0, 0, 0); line-height: 1.2; pointer-events: all; white-space: nowrap;">Pod</div></div></div></foreignObject><text x="91" y="120" fill="rgb(0, 0, 0)" font-family="Helvetica" font-size="12px" text-anchor="middle">Pod</text></switch></g><rect x="41" y="161" width="100" height="100" fill="none" stroke="#2875e2" pointer-events="all"/><path d="M 105.85 219.9 L 163.5 219.9 L 163.5 151 L 214.63 151" fill="none" stroke="rgb(0, 0, 0)" stroke-miterlimit="10" pointer-events="stroke"/><path d="M 219.88 151 L 212.88 154.5 L 214.63 151 L 212.88 147.5 Z" fill="rgb(0, 0, 0)" stroke="rgb(0, 0, 0)" stroke-miterlimit="10" pointer-events="all"/><path d="M 90.89 201.53 C 90.63 201.55 90.36 201.61 90.13 201.73 L 79.76 206.68 C 79.21 206.94 78.81 207.44 78.68 208.02 L 76.12 219.15 C 76 219.67 76.1 220.21 76.38 220.66 C 76.43 220.71 76.46 220.76 76.5 220.82 L 83.68 229.74 C 84.06 230.21 84.64 230.49 85.23 230.49 L 96.75 230.49 C 97.35 230.49 97.92 230.21 98.31 229.74 L 105.49 220.81 C 105.85 220.34 106 219.73 105.87 219.15 L 103.3 208.02 C 103.17 207.44 102.77 206.94 102.23 206.68 L 91.85 201.73 C 91.55 201.58 91.22 201.51 90.89 201.53 Z" fill="#ffffff" stroke="none" pointer-events="all"/><path d="M 90.9 202.4 C 90.65 202.41 90.4 202.48 90.18 202.58 L 80.43 207.24 C 79.92 207.48 79.54 207.95 79.42 208.5 L 77.01 218.96 C 76.9 219.45 76.99 219.96 77.26 220.38 C 77.3 220.43 77.34 220.47 77.37 220.53 L 84.12 228.92 C 84.47 229.35 85.02 229.62 85.58 229.62 L 96.41 229.62 C 96.97 229.62 97.51 229.35 97.87 228.92 L 104.62 220.52 C 104.96 220.08 105.1 219.51 104.98 218.96 L 102.56 208.5 C 102.44 207.95 102.07 207.48 101.55 207.24 L 91.8 202.58 C 91.52 202.44 91.21 202.38 90.9 202.4 Z" fill="#2875e2" stroke="none" pointer-events="all"/><path d="M 100 210.69 L 100 220.26 L 91.62 224.91 L 91.57 213.2 Z M 82 210.69 L 82 220.26 L 90.38 224.91 L 90.43 213.2 Z M 82 209.7 L 91 207.09 L 100 209.7 L 91 212.31 Z" fill="#ffffff" stroke="none" pointer-events="all"/><path d="M 55.89 161.53 C 55.63 161.55 55.36 161.61 55.13 161.73 L 44.76 166.68 C 44.21 166.94 43.81 167.44 43.68 168.02 L 41.12 179.15 C 41 179.67 41.1 180.21 41.38 180.66 C 41.43 180.71 41.46 180.76 41.5 180.82 L 48.68 189.74 C 49.06 190.21 49.64 190.49 50.23 190.49 L 61.75 190.49 C 62.35 190.49 62.92 190.21 63.31 189.74 L 70.49 180.81 C 70.85 180.34 71 179.73 70.87 179.15 L 68.3 168.02 C 68.17 167.44 67.77 166.94 67.23 166.68 L 56.85 161.73 C 56.55 161.58 56.22 161.51 55.89 161.53 Z" fill="#ffffff" stroke="none" pointer-events="all"/><path d="M 55.9 162.4 C 55.65 162.41 55.4 162.48 55.18 162.58 L 45.43 167.24 C 44.92 167.48 44.54 167.95 44.42 168.5 L 42.01 178.96 C 41.9 179.45 41.99 179.96 42.26 180.38 C 42.3 180.43 42.34 180.47 42.37 180.53 L 49.12 188.92 C 49.47 189.35 50.02 189.62 50.58 189.62 L 61.41 189.62 C 61.97 189.62 62.51 189.35 62.87 188.92 L 69.62 180.52 C 69.96 180.08 70.1 179.51 69.98 178.96 L 67.56 168.5 C 67.44 167.95 67.07 167.48 66.55 167.24 L 56.8 162.58 C 56.52 162.44 56.21 162.38 55.9 162.4 Z" fill="#2875e2" stroke="none" pointer-events="all"/><path d="M 56 167.22 C 55.77 167.22 48.88 170.62 48.79 170.78 C 48.57 171.21 47 178.44 47.09 178.58 C 47.14 178.67 48.27 180.1 49.61 181.76 L 52.02 184.78 L 55.98 184.78 L 59.95 184.78 L 62.46 181.63 L 65 178.47 L 64.11 174.6 C 63.63 172.47 63.2 170.69 63.14 170.65 C 63.02 170.53 56.14 167.24 56 167.22 Z M 56.36 168.92 L 57.98 169.4 L 56.36 169.87 L 54.73 169.4 Z M 54.73 169.58 L 56.25 170.03 L 56.25 172.13 L 54.73 171.29 Z M 57.98 169.58 L 57.98 171.29 L 56.46 172.13 L 56.46 170.03 Z M 54.05 172.46 L 55.68 172.92 L 54.05 173.4 L 52.43 172.92 Z M 58 172.46 L 59.63 172.92 L 58 173.4 L 56.38 172.92 Z M 52.43 173.12 L 53.95 173.56 L 53.95 175.67 L 52.43 174.83 Z M 55.68 173.12 L 55.68 174.83 L 54.16 175.67 L 54.16 173.56 Z M 56.38 173.12 L 57.89 173.56 L 57.89 175.67 L 56.38 174.83 Z M 59.63 173.12 L 59.63 174.83 L 58.11 175.67 L 58.11 173.56 Z M 53.46 175.81 C 53.95 175.83 53.57 176.31 54.13 176.58 C 54.71 176.85 54.82 176.15 55.2 176.69 C 55.57 177.22 54.88 177.1 54.93 177.74 C 54.96 178.38 55.64 178.13 55.36 178.72 C 55.09 179.31 54.86 178.63 54.32 179.01 C 53.79 179.37 54.32 179.83 53.68 179.88 C 53.04 179.94 53.5 179.4 52.91 179.12 C 52.32 178.85 52.21 179.54 51.84 179.01 C 51.48 178.47 52.16 178.6 52.13 177.96 C 52.07 177.31 51.39 177.56 51.68 176.97 C 51.96 176.38 52.18 177.06 52.71 176.69 C 53.25 176.33 52.71 175.87 53.36 175.81 C 53.39 175.81 53.43 175.81 53.46 175.81 Z M 57.64 176.46 C 58.5 176.49 57.66 177.29 58.45 177.65 C 59.23 178.01 59.29 176.83 59.88 177.47 C 60.46 178.1 59.3 178.08 59.61 178.88 C 59.93 179.69 60.79 178.9 60.75 179.76 C 60.73 180.62 59.91 179.79 59.57 180.58 C 59.21 181.37 60.38 181.4 59.75 182.01 C 59.13 182.6 59.14 181.44 58.34 181.74 C 57.54 182.04 58.32 182.9 57.46 182.88 C 56.59 182.85 57.43 182.04 56.64 181.69 C 55.86 181.33 55.8 182.51 55.21 181.87 C 54.63 181.24 55.79 181.26 55.48 180.46 C 55.16 179.65 54.32 180.44 54.34 179.58 C 54.36 178.72 55.18 179.54 55.52 178.76 C 55.88 177.97 54.71 177.94 55.34 177.33 C 55.96 176.74 55.95 177.9 56.75 177.6 C 57.57 177.29 56.77 176.44 57.64 176.46 Z M 53.5 176.92 C 52.98 176.92 52.55 177.35 52.55 177.87 C 52.55 178.38 52.98 178.81 53.5 178.81 C 54.02 178.81 54.45 178.38 54.45 177.87 C 54.45 177.35 54.02 176.92 53.5 176.92 Z M 57.55 177.78 C 56.5 177.78 55.64 178.62 55.64 179.67 C 55.64 180.72 56.5 181.56 57.55 181.56 C 58.59 181.56 59.45 180.72 59.45 179.67 C 59.45 178.62 58.59 177.78 57.55 177.78 Z" fill="#ffffff" stroke="none" pointer-events="all"/><rect x="66" y="161" width="50" height="30" fill="none" stroke="none" pointer-events="all"/><g transform="translate(-0.5 -0.5)"><switch><foreignObject pointer-events="none" width="100%" height="100%" requiredFeatures="http://www.w3.org/TR/SVG11/feature#Extensibility" style="overflow: visible; text-align: left;"><div xmlns="http://www.w3.org/1999/xhtml" style="display: flex; align-items: unsafe center; justify-content: unsafe center; width: 1px; height: 1px; padding-top: 176px; margin-left: 91px;"><div data-drawio-colors="color: rgb(0, 0, 0); " style="box-sizing: border-box; font-size: 0px; text-align: center;"><div style="display: inline-block; font-size: 12px; font-family: Helvetica; color: rgb(0, 0, 0); line-height: 1.2; pointer-events: all; white-space: nowrap;">Node</div></div></div></foreignObject><text x="91" y="180" fill="rgb(0, 0, 0)" font-family="Helvetica" font-size="12px" text-anchor="middle">Node</text></switch></g><rect x="41" y="161" width="30" height="30" fill="none" stroke="#2875e2" pointer-events="all"/><rect x="71" y="221" width="40" height="30" fill="none" stroke="none" pointer-events="all"/><g transform="translate(-0.5 -0.5)"><switch><foreignObject pointer-events="none" width="100%" height="100%" requiredFeatures="http://www.w3.org/TR/SVG11/feature#Extensibility" style="overflow: visible; text-align: left;"><div xmlns="http://www.w3.org/1999/xhtml" style="display: flex; align-items: unsafe center; justify-content: unsafe center; width: 1px; height: 1px; padding-top: 236px; margin-left: 91px;"><div data-drawio-colors="color: rgb(0, 0, 0); " style="box-sizing: border-box; font-size: 0px; text-align: center;"><div style="display: inline-block; font-size: 12px; font-family: Helvetica; color: rgb(0, 0, 0); line-height: 1.2; pointer-events: all; white-space: nowrap;">Pod</div></div></div></foreignObject><text x="91" y="240" fill="rgb(0, 0, 0)" font-family="Helvetica" font-size="12px" text-anchor="middle">Pod</text></switch></g><rect x="322" y="189" width="150" height="30" fill="none" stroke="none" pointer-events="all"/><g transform="translate(-0.5 -0.5)"><switch><foreignObject pointer-events="none" width="100%" height="100%" requiredFeatures="http://www.w3.org/TR/SVG11/feature#Extensibility" style="overflow: visible; text-align: left;"><div xmlns="http://www.w3.org/1999/xhtml" style="display: flex; align-items: unsafe center; justify-content: unsafe center; width: 1px; height: 1px; padding-top: 204px; margin-left: 397px;"><div data-drawio-colors="color: rgb(0, 0, 0); " style="box-sizing: border-box; font-size: 0px; text-align: center;"><div style="display: inline-block; font-size: 12px; font-family: Helvetica; color: rgb(0, 0, 0); line-height: 1.2; pointer-events: all; white-space: nowrap;">Amazon FSx for Lustre</div></div></div></foreignObject><text x="397" y="208" fill="rgb(0, 0, 0)" font-family="Helvetica" font-size="12px" text-anchor="middle">Amazon FSx for Lustre</text></switch></g><path d="M 442.37 152 L 486 152 L 529.63 151.87" fill="none" stroke="rgb(0, 0, 0)" stroke-miterlimit="10" pointer-events="stroke"/><path d="M 437.12 152 L 444.12 148.5 L 442.37 152 L 444.12 155.5 Z" fill="rgb(0, 0, 0)" stroke="rgb(0, 0, 0)" stroke-miterlimit="10" pointer-events="all"/><path d="M 534.88 151.86 L 527.89 155.38 L 529.63 151.87 L 527.87 148.38 Z" fill="rgb(0, 0, 0)" stroke="rgb(0, 0, 0)" stroke-miterlimit="10" pointer-events="all"/><path d="M 358 113 L 436 113 L 436 191 L 358 191 Z" fill="#7aa116" stroke="none" pointer-events="all"/><path d="M 425.34 152.31 L 424.46 151.52 L 416.71 159.05 C 416.65 159.05 416.6 159.04 416.54 159.04 C 415.32 159.04 414.33 160.03 414.33 161.25 C 414.33 162.47 415.32 163.46 416.54 163.46 C 417.76 163.46 418.75 162.47 418.75 161.25 C 418.75 161.1 418.73 160.96 418.71 160.83 Z M 419.88 153.44 L 420.76 151.25 C 419.41 150.71 417.99 150.44 416.54 150.44 C 410.1 150.44 404.87 155.75 404.87 162.28 L 407.23 162.28 C 407.23 157.05 411.4 152.79 416.54 152.79 C 417.69 152.79 418.81 153.01 419.88 153.44 Z M 426.01 155.41 L 424.09 156.77 C 425.24 158.4 425.85 160.3 425.85 162.28 L 428.2 162.28 C 428.2 159.81 427.44 157.44 426.01 155.41 Z M 393.38 162.28 L 395.83 162.28 L 399.92 156.31 L 398.82 154.75 Z M 408.15 144.97 L 405.73 144.97 L 401.1 151.58 L 399.87 153.3 L 403.39 158.34 C 403.57 157.49 403.86 156.67 404.23 155.89 L 402.29 153.14 Z M 400.08 150.11 L 396.48 144.97 L 393.92 144.97 L 398.79 151.83 Z M 388.16 151.45 L 384.9 150.2 C 383.82 149.79 383 149.41 382.42 149.05 C 381.84 148.7 381.42 148.3 381.17 147.87 C 380.92 147.43 380.79 146.86 380.79 146.15 C 380.79 144.89 381.2 143.92 382.04 143.24 C 382.87 142.56 384.07 142.22 385.63 142.22 C 387.24 142.22 389.08 142.58 391.15 143.31 L 391.15 141.76 C 390.27 141.37 389.34 141.07 388.36 140.86 C 387.37 140.65 386.43 140.54 385.54 140.54 C 383.57 140.54 381.98 141.06 380.77 142.11 C 379.56 143.16 378.96 144.52 378.96 146.21 C 378.96 147.45 379.33 148.49 380.06 149.33 C 380.79 150.17 381.94 150.9 383.5 151.51 L 387.03 152.88 C 388.25 153.35 389.14 153.87 389.68 154.46 C 390.23 155.05 390.51 155.76 390.51 156.6 C 390.51 157.96 390 159.03 389 159.82 C 387.99 160.62 386.65 161.01 384.96 161.01 C 383.18 161.01 381.22 160.63 379.08 159.85 L 379.08 161.41 C 380.85 162.26 382.86 162.69 385.11 162.69 C 387.29 162.69 389.04 162.13 390.37 161.01 C 391.7 159.9 392.36 158.43 392.36 156.62 C 392.36 155.39 392.03 154.36 391.36 153.53 C 390.69 152.71 389.62 152.01 388.16 151.45 Z M 365.8 141.06 L 377.65 141.06 L 377.65 142.67 L 367.6 142.67 L 367.6 150.75 L 376.1 150.75 L 376.1 152.36 L 367.6 152.36 L 367.6 162.17 L 365.8 162.17 Z" fill="#ffffff" stroke="none" pointer-events="all"/><rect x="416" y="146" width="100" height="20" fill="none" stroke="none" pointer-events="all"/><g transform="translate(-0.5 -0.5)"><switch><foreignObject pointer-events="none" width="100%" height="100%" requiredFeatures="http://www.w3.org/TR/SVG11/feature#Extensibility" style="overflow: visible; text-align: left;"><div xmlns="http://www.w3.org/1999/xhtml" style="display: flex; align-items: unsafe center; justify-content: unsafe center; width: 1px; height: 1px; padding-top: 156px; margin-left: 466px;"><div data-drawio-colors="color: rgb(0, 0, 0); " style="box-sizing: border-box; font-size: 0px; text-align: center;"><div style="display: inline-block; font-size: 24px; font-family: Helvetica; color: rgb(0, 0, 0); line-height: 1.2; pointer-events: all; font-weight: bold; white-space: nowrap;"><font style=""><font style="font-size: 10px; font-weight: normal;">S3 DRA</font><br /></font></div></div></div></foreignObject><text x="466" y="163" fill="rgb(0, 0, 0)" font-family="Helvetica" font-size="24px" text-anchor="middle" font-weight="bold">S3 DRA&#xa;</text></switch></g><rect x="496" y="83.71" width="115" height="127.29" fill="none" stroke="#7aa116" stroke-width="2" pointer-events="all"/><rect x="516" y="82.71" width="100" height="19" fill="none" stroke="none" pointer-events="all"/><g transform="translate(-0.5 -0.5)"><switch><foreignObject pointer-events="none" width="100%" height="100%" requiredFeatures="http://www.w3.org/TR/SVG11/feature#Extensibility" style="overflow: visible; text-align: left;"><div xmlns="http://www.w3.org/1999/xhtml" style="display: flex; align-items: unsafe center; justify-content: unsafe center; width: 1px; height: 1px; padding-top: 92px; margin-left: 566px;"><div data-drawio-colors="color: rgb(0, 0, 0); " style="box-sizing: border-box; font-size: 0px; text-align: center;"><div style="display: inline-block; font-size: 24px; font-family: Helvetica; color: rgb(0, 0, 0); line-height: 1.2; pointer-events: all; font-weight: bold; white-space: nowrap;"><font style="font-size: 12px; font-weight: normal;">Amazon S3</font></div></div></div></foreignObject><text x="566" y="99" fill="rgb(0, 0, 0)" font-family="Helvetica" font-size="24px" text-anchor="middle" font-weight="bold">Amazon S3</text></switch></g><path d="M 536 132.71 L 574.29 132.71 L 574.29 171 L 536 171 Z" fill="#7aa116" stroke="none" pointer-events="all"/><path d="M 566.57 153.44 L 566.78 151.96 C 568.72 153.12 568.75 153.6 568.75 153.61 C 568.74 153.61 568.41 153.89 566.57 153.44 Z M 565.51 153.14 C 562.16 152.13 557.5 149.99 555.61 149.1 C 555.61 149.09 555.62 149.08 555.62 149.08 C 555.62 148.35 555.03 147.76 554.3 147.76 C 553.58 147.76 552.99 148.35 552.99 149.08 C 552.99 149.8 553.58 150.39 554.3 150.39 C 554.62 150.39 554.91 150.27 555.14 150.08 C 557.36 151.13 561.98 153.24 565.36 154.24 L 564.02 163.65 C 564.02 163.67 564.02 163.7 564.02 163.73 C 564.02 164.55 560.35 166.08 554.35 166.08 C 548.29 166.08 544.59 164.55 544.59 163.73 C 544.59 163.7 544.59 163.68 544.58 163.65 L 541.8 143.3 C 544.21 144.96 549.39 145.84 554.36 145.84 C 559.31 145.84 564.49 144.96 566.9 143.31 Z M 541.5 141.18 C 541.54 140.46 545.68 137.63 554.36 137.63 C 563.03 137.63 567.17 140.46 567.21 141.18 L 567.21 141.42 C 566.73 143.04 561.37 144.74 554.36 144.74 C 547.33 144.74 541.96 143.03 541.5 141.41 Z M 568.3 141.19 C 568.3 139.29 562.87 136.54 554.36 136.54 C 545.84 136.54 540.41 139.29 540.41 141.19 L 540.46 141.6 L 543.49 163.77 C 543.57 166.25 550.18 167.17 554.35 167.17 C 559.53 167.17 565.04 165.98 565.11 163.77 L 566.42 154.53 C 567.15 154.7 567.75 154.79 568.23 154.79 C 568.88 154.79 569.32 154.63 569.58 154.32 C 569.8 154.06 569.88 153.74 569.82 153.41 C 569.68 152.65 568.78 151.84 566.95 150.79 L 568.25 141.62 Z" fill="#ffffff" stroke="none" pointer-events="all"/><rect x="505.14" y="166" width="100" height="20" fill="none" stroke="none" pointer-events="all"/><g transform="translate(-0.5 -0.5)"><switch><foreignObject pointer-events="none" width="100%" height="100%" requiredFeatures="http://www.w3.org/TR/SVG11/feature#Extensibility" style="overflow: visible; text-align: left;"><div xmlns="http://www.w3.org/1999/xhtml" style="display: flex; align-items: unsafe center; justify-content: unsafe center; width: 1px; height: 1px; padding-top: 176px; margin-left: 555px;"><div data-drawio-colors="color: rgb(0, 0, 0); " style="box-sizing: border-box; font-size: 0px; text-align: center;"><div style="display: inline-block; font-size: 24px; font-family: Helvetica; color: rgb(0, 0, 0); line-height: 1.2; pointer-events: all; font-weight: bold; white-space: nowrap;"><font style="font-size: 12px; font-weight: normal;">S3 bucket</font></div></div></div></foreignObject><text x="555" y="183" fill="rgb(0, 0, 0)" font-family="Helvetica" font-size="24px" text-anchor="middle" font-weight="bold">S3 bucket</text></switch></g><path d="M 496 82.71 L 526 82.71 L 526 112.71 L 496 112.71 Z" fill="#7aa116" stroke="none" pointer-events="all"/><path d="M 519.95 98.95 L 520.12 97.79 C 521.64 98.7 521.66 99.08 521.66 99.09 C 521.65 99.09 521.39 99.3 519.95 98.95 Z M 519.12 98.72 C 516.5 97.92 512.85 96.25 511.37 95.55 C 511.37 95.54 511.37 95.54 511.37 95.53 C 511.37 94.97 510.91 94.5 510.34 94.5 C 509.77 94.5 509.31 94.97 509.31 95.53 C 509.31 96.1 509.77 96.56 510.34 96.56 C 510.59 96.56 510.82 96.47 510.99 96.32 C 512.73 97.15 516.36 98.8 519 99.58 L 517.95 106.95 C 517.95 106.97 517.95 106.99 517.95 107.01 C 517.95 107.66 515.08 108.85 510.38 108.85 C 505.63 108.85 502.73 107.66 502.73 107.01 C 502.73 106.99 502.73 106.97 502.72 106.95 L 500.54 91.01 C 502.43 92.31 506.49 93 510.38 93 C 514.26 93 518.32 92.31 520.21 91.01 Z M 500.31 89.34 C 500.34 88.78 503.58 86.57 510.38 86.57 C 517.18 86.57 520.42 88.78 520.45 89.34 L 520.45 89.54 C 520.08 90.8 515.88 92.14 510.38 92.14 C 504.87 92.14 500.67 90.8 500.31 89.53 Z M 521.31 89.35 C 521.31 87.87 517.05 85.71 510.38 85.71 C 503.71 85.71 499.45 87.87 499.45 89.35 L 499.49 89.68 L 501.87 107.04 C 501.93 108.99 507.11 109.71 510.38 109.71 C 514.44 109.71 518.75 108.78 518.81 107.04 L 519.83 99.8 C 520.41 99.94 520.88 100.01 521.25 100.01 C 521.76 100.01 522.1 99.89 522.31 99.64 C 522.48 99.44 522.55 99.19 522.5 98.93 C 522.39 98.33 521.68 97.69 520.25 96.88 L 521.27 89.69 Z" fill="#ffffff" stroke="none" pointer-events="all"/></g><switch><g requiredFeatures="http://www.w3.org/TR/SVG11/feature#Extensibility"/><a transform="translate(0,-5)" xlink:href="https://www.drawio.com/doc/faq/svg-export-text-problems" target="_blank"><text text-anchor="middle" font-size="10px" x="50%" y="100%">Text is not SVG - cannot display</text></a></switch></svg>
