<?xml version="1.0" encoding="utf-8"?>
<!-- Generator: Adobe Illustrator 22.0.0, SVG Export Plug-In . SVG Version: 6.00 Build 0)  -->
<svg version="1.1" xmlns="http://www.w3.org/2000/svg" xmlns:xlink="http://www.w3.org/1999/xlink" x="0px" y="0px"
	 viewBox="0 0 200 200" style="enable-background:new 0 0 200 200;" xml:space="preserve">
<style type="text/css">
	.st0{fill:none;stroke:#232F3E;stroke-width:2;stroke-linejoin:round;stroke-miterlimit:10;}
	.st1{fill:#232F3E;}
	.st2{fill:none;stroke:#527FFF;stroke-width:2;stroke-linejoin:round;stroke-miterlimit:10;}
	.st3{fill:none;stroke:#527FFF;stroke-width:2;stroke-miterlimit:10;}
	.st4{fill:none;stroke:#232F3E;stroke-width:2;stroke-linejoin:round;}
	.st5{fill:none;stroke:#527FFF;stroke-width:2;stroke-linejoin:round;}
	.st6{fill:#527FFF;}
	.st7{fill:#879196;stroke:#232F3E;stroke-width:2;stroke-miterlimit:10;}
	.st8{fill:none;stroke:#232F3E;stroke-width:2;stroke-miterlimit:10;}
	.st9{fill:none;stroke:#232F3E;stroke-width:2;stroke-linecap:round;stroke-linejoin:round;stroke-miterlimit:10;}
	.st10{fill:none;stroke:#527FFF;stroke-width:2;stroke-linejoin:round;stroke-miterlimit:10;stroke-dasharray:2,2;}
	.st11{fill:none;stroke:#232F3E;stroke-width:2;stroke-linecap:square;stroke-linejoin:round;stroke-miterlimit:10;}
	.st12{fill:none;stroke:#527FFF;stroke-width:2;stroke-linecap:square;stroke-linejoin:round;stroke-miterlimit:10;}
	.st13{fill:none;stroke:#232F3E;stroke-width:2;stroke-linecap:square;stroke-miterlimit:10;}
	.st14{fill-rule:evenodd;clip-rule:evenodd;fill:none;stroke:#232F3E;stroke-width:2;stroke-linejoin:round;stroke-miterlimit:10;}
	.st15{fill-rule:evenodd;clip-rule:evenodd;fill:none;stroke:#527FFF;stroke-width:2;stroke-linejoin:round;stroke-miterlimit:10;}
	.st16{fill:none;stroke:#232F3E;stroke-width:2;stroke-linejoin:round;stroke-dasharray:5.7138,5.7138;}
	.st17{fill:#FFFFFF;stroke:#527FFF;stroke-width:2;stroke-linejoin:round;stroke-miterlimit:10;}
	.st18{fill:none;stroke:#527FFF;stroke-width:2;stroke-linecap:round;stroke-linejoin:round;stroke-miterlimit:10;}
	.st19{fill:none;stroke:#232F3E;stroke-width:2;stroke-linejoin:round;stroke-miterlimit:10;stroke-dasharray:2,2;}
	.st20{fill:#9DA5A9;stroke:#232F3E;stroke-width:2;stroke-miterlimit:10;}
	.st21{fill:#232F3E;stroke:#232F3E;stroke-width:2;stroke-miterlimit:10;}
	.st22{fill:none;stroke:#527FFF;stroke-width:2;stroke-linejoin:round;stroke-miterlimit:10;stroke-dasharray:4,6;}
	.st23{fill:#FFFFFF;stroke:#232F3E;stroke-width:2;stroke-linejoin:round;stroke-miterlimit:10;}
	.st24{fill:#527FFF;stroke:#232F3E;stroke-width:2;stroke-linejoin:round;stroke-miterlimit:10;}
	.st25{fill:#E5E5E5;stroke:#232F3E;stroke-width:2;stroke-linejoin:round;stroke-miterlimit:10;}
	.st26{clip-path:url(#SVGID_4_);}
	.st27{clip-path:url(#SVGID_5_);}
	.st28{clip-path:url(#SVGID_10_);}
	.st29{clip-path:url(#SVGID_11_);}
	.st30{fill:none;stroke:#232F3E;stroke-width:2;stroke-linejoin:round;stroke-dasharray:3.9281,5.8922;}
	.st31{fill:none;stroke:#232F3E;stroke-width:2;stroke-linejoin:round;stroke-miterlimit:10;stroke-dasharray:4,6;}
	.st32{fill:none;}
	.st33{fill:none;stroke:#527FFF;stroke-width:2;stroke-linejoin:round;stroke-dasharray:11.5983,11.5983;}
	.st34{fill:none;stroke:#527FFF;stroke-width:2;stroke-linejoin:round;stroke-dasharray:10.6,10.6;}
	.st35{fill:#252F3E;}
</style>
<g id="Layer_2">
</g>
<g id="Layer_1">
	<g>
		<path class="st0" d="M93.5,136.3c19-6.6,38.9-24.7,38.9-24.7c37.9-37.9,33.4-77.5,33.4-77.5s-39.6-4.5-77.5,33.4
			c0,0-18,19.9-24.7,38.9L93.5,136.3z"/>
		<polygon class="st0" points="70.5,113.3 56,113.5 86.4,143.9 86.4,129.2 		"/>
		<path class="st0" d="M86.8,69c-1-1-24.8,1.9-24.8,1.9L34,98.9h32.7"/>
		<path class="st0" d="M131.1,113.2c1,1-1.9,24.8-1.9,24.8l-28.1,28.1v-32.7"/>
		<g>
			<line class="st2" x1="55.7" y1="127.4" x2="35.7" y2="147.4"/>
			<line class="st2" x1="73.3" y1="145" x2="53.3" y2="165"/>
		</g>
		<line class="st2" x1="61.1" y1="139.6" x2="35.7" y2="165"/>
		<path class="st0" d="M132.5,84.9L115,67.4c-2.3-2.3-2.3-5.9,0-8.2l8-8c2.3-2.3,5.9-2.3,8.2,0l17.6,17.6c2.3,2.3,2.3,5.9,0,8.2
			l-8,8C138.5,87.2,134.8,87.2,132.5,84.9z"/>
	</g>
</g>
</svg>
