<?xml version="1.0" encoding="utf-8"?>
<!-- Generator: Adobe Illustrator 22.0.0, SVG Export Plug-In . SVG Version: 6.00 Build 0)  -->
<svg version="1.1" xmlns="http://www.w3.org/2000/svg" xmlns:xlink="http://www.w3.org/1999/xlink" x="0px" y="0px"
	 viewBox="0 0 200 200" style="enable-background:new 0 0 200 200;" xml:space="preserve">
<style type="text/css">
	.st0{fill:none;stroke:#232F3E;stroke-width:2;stroke-linejoin:round;stroke-miterlimit:10;}
	.st1{fill:#232F3E;}
	.st2{fill:none;stroke:#527FFF;stroke-width:2;stroke-linejoin:round;stroke-miterlimit:10;}
	.st3{fill:none;stroke:#527FFF;stroke-width:2;stroke-miterlimit:10;}
	.st4{fill:none;stroke:#232F3E;stroke-width:2;stroke-linejoin:round;}
	.st5{fill:none;stroke:#527FFF;stroke-width:2;stroke-linejoin:round;}
	.st6{fill:#527FFF;}
	.st7{fill:#879196;stroke:#232F3E;stroke-width:2;stroke-miterlimit:10;}
	.st8{fill:none;stroke:#232F3E;stroke-width:2;stroke-miterlimit:10;}
	.st9{fill:none;stroke:#232F3E;stroke-width:2;stroke-linecap:round;stroke-linejoin:round;stroke-miterlimit:10;}
	.st10{fill:none;stroke:#527FFF;stroke-width:2;stroke-linejoin:round;stroke-miterlimit:10;stroke-dasharray:2,2;}
	.st11{fill:none;stroke:#232F3E;stroke-width:2;stroke-linecap:square;stroke-linejoin:round;stroke-miterlimit:10;}
	.st12{fill:none;stroke:#527FFF;stroke-width:2;stroke-linecap:square;stroke-linejoin:round;stroke-miterlimit:10;}
	.st13{fill:none;stroke:#232F3E;stroke-width:2;stroke-linecap:square;stroke-miterlimit:10;}
	.st14{fill-rule:evenodd;clip-rule:evenodd;fill:none;stroke:#232F3E;stroke-width:2;stroke-linejoin:round;stroke-miterlimit:10;}
	.st15{fill-rule:evenodd;clip-rule:evenodd;fill:none;stroke:#527FFF;stroke-width:2;stroke-linejoin:round;stroke-miterlimit:10;}
	.st16{fill:none;stroke:#232F3E;stroke-width:2;stroke-linejoin:round;stroke-dasharray:5.7138,5.7138;}
	.st17{fill:#FFFFFF;stroke:#527FFF;stroke-width:2;stroke-linejoin:round;stroke-miterlimit:10;}
	.st18{fill:none;stroke:#527FFF;stroke-width:2;stroke-linecap:round;stroke-linejoin:round;stroke-miterlimit:10;}
	.st19{fill:none;stroke:#232F3E;stroke-width:2;stroke-linejoin:round;stroke-miterlimit:10;stroke-dasharray:2,2;}
	.st20{fill:#9DA5A9;stroke:#232F3E;stroke-width:2;stroke-miterlimit:10;}
	.st21{fill:#232F3E;stroke:#232F3E;stroke-width:2;stroke-miterlimit:10;}
	.st22{fill:none;stroke:#527FFF;stroke-width:2;stroke-linejoin:round;stroke-miterlimit:10;stroke-dasharray:4,6;}
	.st23{fill:#FFFFFF;stroke:#232F3E;stroke-width:2;stroke-linejoin:round;stroke-miterlimit:10;}
	.st24{fill:#527FFF;stroke:#232F3E;stroke-width:2;stroke-linejoin:round;stroke-miterlimit:10;}
	.st25{fill:#E5E5E5;stroke:#232F3E;stroke-width:2;stroke-linejoin:round;stroke-miterlimit:10;}
	.st26{clip-path:url(#SVGID_4_);}
	.st27{clip-path:url(#SVGID_5_);}
	.st28{clip-path:url(#SVGID_10_);}
	.st29{clip-path:url(#SVGID_11_);}
	.st30{fill:none;stroke:#232F3E;stroke-width:2;stroke-linejoin:round;stroke-dasharray:3.9281,5.8922;}
	.st31{fill:none;stroke:#232F3E;stroke-width:2;stroke-linejoin:round;stroke-miterlimit:10;stroke-dasharray:4,6;}
	.st32{fill:none;}
	.st33{fill:none;stroke:#527FFF;stroke-width:2;stroke-linejoin:round;stroke-dasharray:11.5983,11.5983;}
	.st34{fill:none;stroke:#527FFF;stroke-width:2;stroke-linejoin:round;stroke-dasharray:10.6,10.6;}
	.st35{fill:#252F3E;}
</style>
<g id="Layer_2">
</g>
<g id="Layer_1">
	<g>
		<g>
			
				<rect x="72.2" y="48.9" transform="matrix(-1 -4.427715e-11 4.427715e-11 -1 152.0366 105.4952)" class="st2" width="7.7" height="7.7"/>
			
				<rect x="87.2" y="32.4" transform="matrix(-1 -4.427715e-11 4.427715e-11 -1 182.0366 72.4952)" class="st2" width="7.7" height="7.7"/>
			
				<rect x="30.2" y="24.9" transform="matrix(-1 -4.427715e-11 4.427715e-11 -1 68.0366 57.4952)" class="st2" width="7.7" height="7.7"/>
			
				<rect x="99.2" y="57.5" transform="matrix(-1 -4.498725e-11 4.498725e-11 -1 206.1668 122.7238)" class="st2" width="7.7" height="7.7"/>
			
				<rect x="61.9" y="65.6" transform="matrix(-1 -4.676316e-11 4.676316e-11 -1 131.5134 138.8372)" class="st2" width="7.7" height="7.7"/>
			
				<rect x="82.9" y="64" transform="matrix(-1 -4.451385e-11 4.451385e-11 -1 173.5645 135.727)" class="st2" width="7.7" height="7.7"/>
			
				<rect x="59.4" y="90.6" transform="matrix(-1 -4.475055e-11 4.475055e-11 -1 126.484 188.9313)" class="st2" width="7.7" height="7.7"/>
			
				<rect x="42.9" y="75.6" transform="matrix(-1 -4.475055e-11 4.475055e-11 -1 93.484 158.9313)" class="st2" width="7.7" height="7.7"/>
			
				<rect x="51.7" y="47.4" transform="matrix(-1 -4.522395e-11 4.522395e-11 -1 111.1208 102.54)" class="st2" width="7.7" height="7.7"/>
		</g>
		<g>
			<path class="st0" d="M74,172.3V74.8c0-1.6,1.3-2.8,2.8-2.8h45l24,24v76.3c0,1.6-1.3,2.8-2.8,2.8H76.8
				C75.3,175.1,74,173.8,74,172.3z"/>
			<polygon class="st0" points="121.9,96 145.8,96 121.9,72 			"/>
			<line class="st0" x1="105.4" y1="129.4" x2="135.3" y2="129.4"/>
			<line class="st0" x1="105.4" y1="157.5" x2="135.3" y2="157.5"/>
			<line class="st0" x1="105.4" y1="115.9" x2="135.3" y2="115.9"/>
			<line class="st0" x1="105.4" y1="144" x2="135.3" y2="144"/>
			<line class="st0" x1="105.4" y1="101.3" x2="115.2" y2="101.3"/>
		</g>
		<polyline class="st0" points="84.3,102.6 88.8,107.1 99.9,96 		"/>
		<polyline class="st0" points="84.3,158.1 88.8,162.6 99.9,151.5 		"/>
		<g>
			<line class="st0" x1="86.5" y1="123.7" x2="97.7" y2="134.9"/>
			<line class="st0" x1="97.7" y1="123.7" x2="86.5" y2="135"/>
		</g>
	</g>
</g>
</svg>
