<?xml version="1.0" encoding="utf-8"?>
<!-- Generator: Adobe Illustrator 22.0.0, SVG Export Plug-In . SVG Version: 6.00 Build 0)  -->
<svg version="1.1" xmlns="http://www.w3.org/2000/svg" xmlns:xlink="http://www.w3.org/1999/xlink" x="0px" y="0px"
	 viewBox="0 0 200 200" style="enable-background:new 0 0 200 200;" xml:space="preserve">
<style type="text/css">
	.st0{fill:none;stroke:#232F3E;stroke-width:2;stroke-linejoin:round;stroke-miterlimit:10;}
	.st1{fill:#232F3E;}
	.st2{fill:none;stroke:#527FFF;stroke-width:2;stroke-linejoin:round;stroke-miterlimit:10;}
	.st3{fill:none;stroke:#527FFF;stroke-width:2;stroke-miterlimit:10;}
	.st4{fill:none;stroke:#232F3E;stroke-width:2;stroke-linejoin:round;}
	.st5{fill:none;stroke:#527FFF;stroke-width:2;stroke-linejoin:round;}
	.st6{fill:#527FFF;}
	.st7{fill:#879196;stroke:#232F3E;stroke-width:2;stroke-miterlimit:10;}
	.st8{fill:none;stroke:#232F3E;stroke-width:2;stroke-miterlimit:10;}
	.st9{fill:none;stroke:#232F3E;stroke-width:2;stroke-linecap:round;stroke-linejoin:round;stroke-miterlimit:10;}
	.st10{fill:none;stroke:#527FFF;stroke-width:2;stroke-linejoin:round;stroke-miterlimit:10;stroke-dasharray:2,2;}
	.st11{fill:none;stroke:#232F3E;stroke-width:2;stroke-linecap:square;stroke-linejoin:round;stroke-miterlimit:10;}
	.st12{fill:none;stroke:#527FFF;stroke-width:2;stroke-linecap:square;stroke-linejoin:round;stroke-miterlimit:10;}
	.st13{fill:none;stroke:#232F3E;stroke-width:2;stroke-linecap:square;stroke-miterlimit:10;}
	.st14{fill-rule:evenodd;clip-rule:evenodd;fill:none;stroke:#232F3E;stroke-width:2;stroke-linejoin:round;stroke-miterlimit:10;}
	.st15{fill-rule:evenodd;clip-rule:evenodd;fill:none;stroke:#527FFF;stroke-width:2;stroke-linejoin:round;stroke-miterlimit:10;}
	.st16{fill:none;stroke:#232F3E;stroke-width:2;stroke-linejoin:round;stroke-dasharray:5.7138,5.7138;}
	.st17{fill:#FFFFFF;stroke:#527FFF;stroke-width:2;stroke-linejoin:round;stroke-miterlimit:10;}
	.st18{fill:none;stroke:#527FFF;stroke-width:2;stroke-linecap:round;stroke-linejoin:round;stroke-miterlimit:10;}
	.st19{fill:none;stroke:#232F3E;stroke-width:2;stroke-linejoin:round;stroke-miterlimit:10;stroke-dasharray:2,2;}
	.st20{fill:#9DA5A9;stroke:#232F3E;stroke-width:2;stroke-miterlimit:10;}
	.st21{fill:#232F3E;stroke:#232F3E;stroke-width:2;stroke-miterlimit:10;}
	.st22{fill:none;stroke:#527FFF;stroke-width:2;stroke-linejoin:round;stroke-miterlimit:10;stroke-dasharray:4,6;}
	.st23{fill:#FFFFFF;stroke:#232F3E;stroke-width:2;stroke-linejoin:round;stroke-miterlimit:10;}
	.st24{fill:#527FFF;stroke:#232F3E;stroke-width:2;stroke-linejoin:round;stroke-miterlimit:10;}
	.st25{fill:#E5E5E5;stroke:#232F3E;stroke-width:2;stroke-linejoin:round;stroke-miterlimit:10;}
	.st26{clip-path:url(#SVGID_4_);}
	.st27{clip-path:url(#SVGID_5_);}
	.st28{clip-path:url(#SVGID_10_);}
	.st29{clip-path:url(#SVGID_11_);}
	.st30{fill:none;stroke:#232F3E;stroke-width:2;stroke-linejoin:round;stroke-dasharray:3.9281,5.8922;}
	.st31{fill:none;stroke:#232F3E;stroke-width:2;stroke-linejoin:round;stroke-miterlimit:10;stroke-dasharray:4,6;}
	.st32{fill:none;}
	.st33{fill:none;stroke:#527FFF;stroke-width:2;stroke-linejoin:round;stroke-dasharray:11.5983,11.5983;}
	.st34{fill:none;stroke:#527FFF;stroke-width:2;stroke-linejoin:round;stroke-dasharray:10.6,10.6;}
	.st35{fill:#252F3E;}
</style>
<g id="Layer_2">
</g>
<g id="Layer_1">
	<g>
		<g>
			<g id="Choose_AWS_application_44_">
				
					<rect x="96.4" y="67.7" transform="matrix(-1 -4.447121e-11 4.447121e-11 -1 212.2795 154.8788)" class="st0" width="19.6" height="19.6"/>
				
					<rect x="96.4" y="95.2" transform="matrix(-1 -4.521551e-11 4.521551e-11 -1 212.2795 209.9774)" class="st0" width="19.6" height="19.6"/>
			</g>
			
				<rect x="68.5" y="67.7" transform="matrix(-1 -4.521551e-11 4.521551e-11 -1 156.5294 154.8788)" class="st0" width="19.6" height="19.6"/>
			
				<rect x="68.5" y="95.2" transform="matrix(-1 -4.447121e-11 4.447121e-11 -1 156.5294 209.9774)" class="st0" width="19.6" height="19.6"/>
		</g>
		<g>
			<path class="st0" d="M142.4,80.3V60c0-1.5-1.2-2.8-2.8-2.8H44.9c-1.5,0-2.8,1.2-2.8,2.8v63.1c0,1.5,1.2,2.8,2.8,2.8h76.4"/>
			<path class="st0" d="M149.2,80.6V53.4c0-1.5-1.2-2.8-2.8-2.8H37.7c-1.5,0-2.8,1.2-2.8,2.8v77.7c0,1.5,1.2,2.8,2.8,2.8h79.5"/>
			<path class="st0" d="M113.7,144.1l-82.7,0c0,0-5.9,0.1-8.2-3.5v-6.6h13.3"/>
		</g>
		<g>
			<g>
				<g>
					<g>
						<g>
							<path class="st2" d="M165.1,103.5c0-8.8-7.1-15.9-15.9-15.9c-8.8,0-15.9,7.1-15.9,15.9c0,8.8,7.1,15.9,15.9,15.9
								C158,119.4,165.1,112.3,165.1,103.5"/>
						</g>
					</g>
					<path class="st2" d="M177.1,149.4h-56c0-10.6,5.5-19.8,13.6-24.9c4.2-2.6,9.1-4.1,14.3-4.1
						C164.6,120.4,177.1,133.3,177.1,149.4z"/>
				</g>
			</g>
		</g>
	</g>
</g>
</svg>
